<mxfile host="app.diagrams.net" modified="2023-05-20T09:43:42.763Z" agent="Mozilla/5.0 (X11; Linux x86_64) AppleWebKit/537.36 (KHTML, like Gecko) Chrome/110.0.0.0 Safari/537.36" etag="W9dkCoBmFTXumbk_nff5" version="21.3.2" type="device">
  <diagram name="Страница 1" id="zVUz-1O9X6XE9YKsQevv">
    <mxGraphModel dx="1304" dy="788" grid="1" gridSize="10" guides="1" tooltips="1" connect="1" arrows="1" fold="1" page="1" pageScale="1" pageWidth="250" pageHeight="1200" math="1" shadow="0">
      <root>
        <mxCell id="0" />
        <mxCell id="1" parent="0" />
        <mxCell id="UbZ52TbM_wlvctNK4IRE-2" style="edgeStyle=orthogonalEdgeStyle;rounded=0;orthogonalLoop=1;jettySize=auto;html=1;exitX=0.5;exitY=1;exitDx=0;exitDy=0;entryX=0.5;entryY=0;entryDx=0;entryDy=0;" edge="1" parent="1" source="UbZ52TbM_wlvctNK4IRE-3" target="UbZ52TbM_wlvctNK4IRE-9">
          <mxGeometry relative="1" as="geometry" />
        </mxCell>
        <mxCell id="UbZ52TbM_wlvctNK4IRE-3" value="&lt;font style=&quot;font-size: 16px;&quot;&gt;Начало&lt;/font&gt;" style="rounded=1;whiteSpace=wrap;html=1;arcSize=50;fontSize=14;fontFamily=Times New Roman;" vertex="1" parent="1">
          <mxGeometry x="29.75" y="27" width="190" height="56.75" as="geometry" />
        </mxCell>
        <mxCell id="UbZ52TbM_wlvctNK4IRE-44" style="edgeStyle=orthogonalEdgeStyle;rounded=0;orthogonalLoop=1;jettySize=auto;html=1;exitX=0.5;exitY=1;exitDx=0;exitDy=0;entryX=0.5;entryY=0;entryDx=0;entryDy=0;" edge="1" parent="1" source="UbZ52TbM_wlvctNK4IRE-5" target="UbZ52TbM_wlvctNK4IRE-15">
          <mxGeometry relative="1" as="geometry" />
        </mxCell>
        <mxCell id="UbZ52TbM_wlvctNK4IRE-5" value="&lt;font style=&quot;font-size: 16px;&quot; face=&quot;Times New Roman&quot;&gt;Для каждого класса эквивалентности&lt;/font&gt;" style="shape=loopLimit;whiteSpace=wrap;html=1;strokeWidth=1;" vertex="1" parent="1">
          <mxGeometry x="28.879999999999995" y="567" width="191.75" height="70" as="geometry" />
        </mxCell>
        <mxCell id="UbZ52TbM_wlvctNK4IRE-42" style="edgeStyle=orthogonalEdgeStyle;rounded=0;orthogonalLoop=1;jettySize=auto;html=1;exitX=0.5;exitY=1;exitDx=0;exitDy=0;entryX=0.5;entryY=0;entryDx=0;entryDy=0;" edge="1" parent="1" source="UbZ52TbM_wlvctNK4IRE-9" target="UbZ52TbM_wlvctNK4IRE-26">
          <mxGeometry relative="1" as="geometry" />
        </mxCell>
        <mxCell id="UbZ52TbM_wlvctNK4IRE-9" value="&lt;span style=&quot;font-size: 16px;&quot;&gt;Инициализировать значение энтропии нулем&lt;/span&gt;" style="shape=process;whiteSpace=wrap;html=1;backgroundOutline=1;fontSize=14;size=0;fontFamily=Times New Roman;" vertex="1" parent="1">
          <mxGeometry x="28" y="127" width="193.5" height="65.5" as="geometry" />
        </mxCell>
        <mxCell id="UbZ52TbM_wlvctNK4IRE-14" style="edgeStyle=orthogonalEdgeStyle;rounded=0;orthogonalLoop=1;jettySize=auto;html=1;exitX=0.5;exitY=1;exitDx=0;exitDy=0;entryX=0.5;entryY=0;entryDx=0;entryDy=0;" edge="1" parent="1" source="UbZ52TbM_wlvctNK4IRE-15" target="UbZ52TbM_wlvctNK4IRE-19">
          <mxGeometry relative="1" as="geometry" />
        </mxCell>
        <mxCell id="UbZ52TbM_wlvctNK4IRE-15" value="&lt;span style=&quot;font-size: 16px;&quot;&gt;Посчитать вероятность&amp;nbsp; &amp;nbsp; &amp;nbsp;того, что сообщение содержит &lt;i&gt;k&lt;/i&gt; единиц&lt;br&gt;&lt;/span&gt;" style="shape=process;whiteSpace=wrap;html=1;backgroundOutline=1;fontSize=14;size=0;fontFamily=Times New Roman;" vertex="1" parent="1">
          <mxGeometry x="28" y="677" width="193.5" height="65.5" as="geometry" />
        </mxCell>
        <mxCell id="UbZ52TbM_wlvctNK4IRE-16" style="edgeStyle=orthogonalEdgeStyle;rounded=0;orthogonalLoop=1;jettySize=auto;html=1;exitX=0.5;exitY=0;exitDx=0;exitDy=0;entryX=0.5;entryY=0;entryDx=0;entryDy=0;" edge="1" parent="1" source="UbZ52TbM_wlvctNK4IRE-17" target="UbZ52TbM_wlvctNK4IRE-24">
          <mxGeometry relative="1" as="geometry" />
        </mxCell>
        <mxCell id="UbZ52TbM_wlvctNK4IRE-17" value="" style="shape=loopLimit;whiteSpace=wrap;html=1;strokeWidth=1;direction=west;fontFamily=Times New Roman;fontSize=14;" vertex="1" parent="1">
          <mxGeometry x="29.75" y="897" width="190" height="70" as="geometry" />
        </mxCell>
        <mxCell id="UbZ52TbM_wlvctNK4IRE-18" style="edgeStyle=orthogonalEdgeStyle;rounded=0;orthogonalLoop=1;jettySize=auto;html=1;exitX=0.5;exitY=1;exitDx=0;exitDy=0;entryX=0.5;entryY=1;entryDx=0;entryDy=0;" edge="1" parent="1" source="UbZ52TbM_wlvctNK4IRE-19" target="UbZ52TbM_wlvctNK4IRE-17">
          <mxGeometry relative="1" as="geometry" />
        </mxCell>
        <mxCell id="UbZ52TbM_wlvctNK4IRE-19" value="&lt;span style=&quot;font-size: 16px;&quot;&gt;Увеличить значение энтропии на&amp;nbsp;&lt;br&gt;&lt;br&gt;&lt;/span&gt;" style="shape=process;whiteSpace=wrap;html=1;backgroundOutline=1;fontSize=14;size=0;fontFamily=Times New Roman;" vertex="1" parent="1">
          <mxGeometry x="28" y="787" width="193.5" height="65.5" as="geometry" />
        </mxCell>
        <mxCell id="UbZ52TbM_wlvctNK4IRE-20" value="&lt;font face=&quot;Times New Roman&quot;&gt;&lt;span style=&quot;font-size: 16px;&quot;&gt;$$P_k$$&lt;br&gt;&lt;/span&gt;&lt;/font&gt;" style="text;html=1;strokeColor=none;fillColor=none;align=center;verticalAlign=middle;whiteSpace=wrap;rounded=0;" vertex="1" parent="1">
          <mxGeometry x="199.75" y="695" width="20" height="10" as="geometry" />
        </mxCell>
        <mxCell id="UbZ52TbM_wlvctNK4IRE-21" value="&lt;font face=&quot;Times New Roman&quot;&gt;&lt;span style=&quot;font-size: 16px;&quot;&gt;$$C_k \cdot P_k \cdot log_2P_k$$&lt;br&gt;&lt;/span&gt;&lt;/font&gt;" style="text;html=1;strokeColor=none;fillColor=none;align=center;verticalAlign=middle;whiteSpace=wrap;rounded=0;" vertex="1" parent="1">
          <mxGeometry x="94.75999999999999" y="847" width="60" height="5.5" as="geometry" />
        </mxCell>
        <mxCell id="UbZ52TbM_wlvctNK4IRE-22" style="edgeStyle=orthogonalEdgeStyle;rounded=0;orthogonalLoop=1;jettySize=auto;html=1;exitX=0.5;exitY=1;exitDx=0;exitDy=0;" edge="1" parent="1" source="UbZ52TbM_wlvctNK4IRE-21" target="UbZ52TbM_wlvctNK4IRE-21">
          <mxGeometry relative="1" as="geometry" />
        </mxCell>
        <mxCell id="UbZ52TbM_wlvctNK4IRE-23" style="edgeStyle=orthogonalEdgeStyle;rounded=0;orthogonalLoop=1;jettySize=auto;html=1;exitX=0.5;exitY=1;exitDx=0;exitDy=0;entryX=0.5;entryY=0;entryDx=0;entryDy=0;" edge="1" parent="1" source="UbZ52TbM_wlvctNK4IRE-24" target="UbZ52TbM_wlvctNK4IRE-25">
          <mxGeometry relative="1" as="geometry" />
        </mxCell>
        <mxCell id="UbZ52TbM_wlvctNK4IRE-24" value="&lt;span style=&quot;font-size: 16px;&quot;&gt;Вернуть противоположное значение энтропии&lt;/span&gt;" style="shape=process;whiteSpace=wrap;html=1;backgroundOutline=1;fontSize=14;size=0;fontFamily=Times New Roman;" vertex="1" parent="1">
          <mxGeometry x="28" y="1007" width="193.5" height="65.5" as="geometry" />
        </mxCell>
        <mxCell id="UbZ52TbM_wlvctNK4IRE-25" value="&lt;font style=&quot;font-size: 16px;&quot;&gt;Конец&lt;/font&gt;" style="rounded=1;whiteSpace=wrap;html=1;arcSize=50;fontSize=14;fontFamily=Times New Roman;" vertex="1" parent="1">
          <mxGeometry x="29.75" y="1117" width="190" height="56.75" as="geometry" />
        </mxCell>
        <mxCell id="UbZ52TbM_wlvctNK4IRE-43" style="edgeStyle=orthogonalEdgeStyle;rounded=0;orthogonalLoop=1;jettySize=auto;html=1;exitX=0.5;exitY=1;exitDx=0;exitDy=0;entryX=0.5;entryY=0;entryDx=0;entryDy=0;" edge="1" parent="1" source="UbZ52TbM_wlvctNK4IRE-26" target="UbZ52TbM_wlvctNK4IRE-27">
          <mxGeometry relative="1" as="geometry" />
        </mxCell>
        <mxCell id="UbZ52TbM_wlvctNK4IRE-26" value="&lt;span style=&quot;font-size: 16px;&quot;&gt;Определить вероятность появления единицы&lt;/span&gt;" style="shape=process;whiteSpace=wrap;html=1;backgroundOutline=1;fontSize=14;size=0;fontFamily=Times New Roman;" vertex="1" parent="1">
          <mxGeometry x="28" y="237" width="193.5" height="65.5" as="geometry" />
        </mxCell>
        <mxCell id="UbZ52TbM_wlvctNK4IRE-31" style="edgeStyle=orthogonalEdgeStyle;rounded=0;orthogonalLoop=1;jettySize=auto;html=1;exitX=0.5;exitY=1;exitDx=0;exitDy=0;entryX=0.5;entryY=0;entryDx=0;entryDy=0;" edge="1" parent="1" source="UbZ52TbM_wlvctNK4IRE-27" target="UbZ52TbM_wlvctNK4IRE-30">
          <mxGeometry relative="1" as="geometry" />
        </mxCell>
        <mxCell id="UbZ52TbM_wlvctNK4IRE-27" value="&lt;span style=&quot;font-size: 16px;&quot;&gt;Определить вероятность появления нуля&lt;/span&gt;" style="shape=process;whiteSpace=wrap;html=1;backgroundOutline=1;fontSize=14;size=0;fontFamily=Times New Roman;" vertex="1" parent="1">
          <mxGeometry x="28" y="347" width="193.5" height="65.5" as="geometry" />
        </mxCell>
        <mxCell id="UbZ52TbM_wlvctNK4IRE-41" style="edgeStyle=orthogonalEdgeStyle;rounded=0;orthogonalLoop=1;jettySize=auto;html=1;exitX=0.5;exitY=1;exitDx=0;exitDy=0;entryX=0.5;entryY=0;entryDx=0;entryDy=0;" edge="1" parent="1" source="UbZ52TbM_wlvctNK4IRE-30" target="UbZ52TbM_wlvctNK4IRE-5">
          <mxGeometry relative="1" as="geometry" />
        </mxCell>
        <mxCell id="UbZ52TbM_wlvctNK4IRE-30" value="&lt;span style=&quot;font-size: 16px;&quot;&gt;Инициализировать массив биномиальных коэффициентов &lt;i&gt;C&lt;/i&gt;&amp;nbsp;&lt;/span&gt;" style="shape=process;whiteSpace=wrap;html=1;backgroundOutline=1;fontSize=14;size=0;fontFamily=Times New Roman;" vertex="1" parent="1">
          <mxGeometry x="28" y="457" width="193.5" height="65.5" as="geometry" />
        </mxCell>
      </root>
    </mxGraphModel>
  </diagram>
</mxfile>
